<svg xmlns="http://www.w3.org/2000/svg"  viewBox="0 0 48 48" width="48px" height="48px" baseProfile="basic"><path fill="#f2ca00" d="M36,18H12c-2.757,0-5,2.243-5,5v16c0,2.757,2.243,5,5,5h24c2.757,0,5-2.243,5-5V23 C41,20.243,38.757,18,36,18z"/><path fill="#324561" d="M35,20c-0.553,0-1-0.447-1-1v-7c0-5.514-4.486-10-10-10S14,6.486,14,12v7c0,0.553-0.447,1-1,1 s-1-0.447-1-1v-7c0-6.617,5.383-12,12-12s12,5.383,12,12v7C36,19.553,35.553,20,35,20z"/><path fill="#324561" d="M22,34c-0.256,0-0.512-0.098-0.707-0.293c-0.391-0.391-0.391-1.023,0-1.414l4-4 c0.391-0.391,1.023-0.391,1.414,0s0.391,1.023,0,1.414l-4,4C22.512,33.902,22.256,34,22,34z"/><path fill="#324561" d="M26,34c-0.256,0-0.512-0.098-0.707-0.293l-4-4c-0.391-0.391-0.391-1.023,0-1.414 s1.023-0.391,1.414,0l4,4c0.391,0.391,0.391,1.023,0,1.414C26.512,33.902,26.256,34,26,34z"/><path fill="#324561" d="M31,34c-0.256,0-0.512-0.098-0.707-0.293c-0.391-0.391-0.391-1.023,0-1.414l4-4 c0.391-0.391,1.023-0.391,1.414,0s0.391,1.023,0,1.414l-4,4C31.512,33.902,31.256,34,31,34z"/><path fill="#324561" d="M35,34c-0.256,0-0.512-0.098-0.707-0.293l-4-4c-0.391-0.391-0.391-1.023,0-1.414 s1.023-0.391,1.414,0l4,4c0.391,0.391,0.391,1.023,0,1.414C35.512,33.902,35.256,34,35,34z"/><path fill="#324561" d="M13,34c-0.256,0-0.512-0.098-0.707-0.293c-0.391-0.391-0.391-1.023,0-1.414l4-4 c0.391-0.391,1.023-0.391,1.414,0s0.391,1.023,0,1.414l-4,4C13.512,33.902,13.256,34,13,34z"/><path fill="#324561" d="M17,34c-0.256,0-0.512-0.098-0.707-0.293l-4-4c-0.391-0.391-0.391-1.023,0-1.414 s1.023-0.391,1.414,0l4,4c0.391,0.391,0.391,1.023,0,1.414C17.512,33.902,17.256,34,17,34z"/></svg>